<svg id="snapchat" viewBox="0 0 512 512" xmlns="http://www.w3.org/2000/svg" data-name="Layer 1"><path d="m256 41c-118.741 0-215 96.259-215 215s96.259 215 215 215 215-96.259 215-215-96.259-215-215-215zm125.811 289.66c-.012.018-.029.026-.04.043-2.938 4.372-8.982 5.979-13.66 7.677a59.939 59.939 0 0 1 -10.2 2.908c-2.33.4-5.35.015-7.125 1.855-3.022 3.707-2.521 8.768-4.685 12.777-.025.048-.715 2.512-1.989 3.276-2.083 1.249-5.217.156-7.472-.076a142.665 142.665 0 0 0 -17.854-.632c-4.173.3-7.92.237-10.919 1.39-.012 0-.026.015-.039.02-9.788 4.608-18.075 11.712-27.355 17.177a30.482 30.482 0 0 1 -13.976 5.137h-.1a133.857 133.857 0 0 1 -17.767.463c-.026 0-.052 0-.079 0v-.021c-8-.292-14.93-4.24-20.923-8.273v.021c-.016-.01-.024-.032-.04-.042-4.678-3.029-9.14-6.382-13.863-9.342-4.039-2.531-8.172-3.915-12.419-5.878-9.095-2.436-18.89-.773-27.951 1.011-2.3.452-4.622 1.3-6.454-.853-2.41-2.835-2.122-9.094-3.174-12.576-.728-1.856-1.039-2.972-1.191-3.243-3.1-1.417-6.91-1.95-11.037-2.946-6.2-1.715-12.425-3.321-17.966-6.715-2.982-1.69-5.307-5.093-3.831-8.589 1.264-2.993 4.323-3.608 6.988-4.672a2.9 2.9 0 0 1 .278-.106c20.326-5.843 36.5-22.6 45.26-41.447 4.044-8.691 5.314-17.331-4.664-22.018-.006 0-.015 0-.021 0-5.378-2.223-11.563-3.98-17.151-7.977-.054-.041-.107-.083-.159-.127-5.515-4.512-8.331-10.177-1.271-15.134.045-.038.094-.069.14-.1.029-.021.07-.044.1-.064a9.572 9.572 0 0 1 8.2-1.978c2.9.642 5.6 2.01 8.535 2.546h.06a28.529 28.529 0 0 0 10.958.337c.038-.178.041-.252.1-.547.723-7.579-.133-15.562-.5-23.808a.146.146 0 0 1 0-.021c-.6-11.731-1-24.392 3.4-36.29 0-.028.012-.056.019-.084 10.9-27.259 35.558-44.328 64.914-44.541a96.017 96.017 0 0 1 11.4.506.05.05 0 0 1 .013 0 65.6 65.6 0 0 1 47.27 28c11.9 16.968 12.007 35.633 11.47 55.626v.041c-.088 6.412-.567 12.6-.377 18.608h-.02c.1.984.115 1.781.139 2.19 2.571 1.01 5.877.855 9.291.21q.078-.022.159-.042c2.4-.322 4.988-1.545 8.158-2.568l.06-.021h.02a10.745 10.745 0 0 1 9.211.905h.019a12.892 12.892 0 0 1 5.4 5.515v.021c1.4 3.112-.112 6.306-2.323 8.525l-.059.063c-4.261 4.012-9.922 6.681-15.445 8.483-4.645 1.828-9 4.151-11.375 7.767-.019.022-.04.043-.06.064-1.521 2.175-1.469 5.762-.436 9.052 5.681 20.3 24.46 40.323 44.348 47.088 2.8.894 5.724 1.493 8.2 3.178v-.021c.022.012.038.029.06.042.08.055.157.089.238.148l-.039.041a5.82 5.82 0 0 1 1.587 8.021z"/></svg>
